<svg xmlns="http://www.w3.org/2000/svg" version="1.1" viewBox="-5.0 -10.0 110.0 135.0">
 <g>
  <path d="m67.695 72.633c0 3.7031-5.5547 3.7031-5.5547 0 0-3.7031 5.5547-3.7031 5.5547 0"/>
  <path d="m81.629 37.781c-2.7656-9.1953-12.141-14.805-21.609-12.789-3.3047-6.8477-10.316-11.516-18.352-11.516-12.645 0-22.352 11.5-20.035 24.078-10.371-0.18359-18.855 8.1992-18.855 18.516 0 10.211 8.3086 18.52 18.52 18.52h0.12891c0.90625 6.7305 6.6836 11.934 13.656 11.934 6.9727 0 12.754-5.2031 13.66-11.934h2.5117c0.90625 6.7305 6.6875 11.934 13.66 11.934 6.9727 0 12.75-5.207 13.656-11.934h0.13281c10.211 0 18.52-8.3086 18.52-18.52 0-9.1797-6.7031-16.875-15.594-18.289zm-39.961 36.703h-4.6289v4.6289h-3.7031v-4.6289h-4.6289v-3.7031h4.6289v-4.6289h3.7031v4.6289h4.6289zm23.25 4.6328c-3.5742 0-6.4805-2.9062-6.4805-6.4805s2.9062-6.4805 6.4805-6.4805 6.4805 2.9062 6.4805 6.4805c0 3.5703-2.9062 6.4805-6.4805 6.4805zm13.785-8.2344h-0.12891c-0.90625-6.7305-6.6836-11.934-13.656-11.934h-29.836c-6.9727 0-12.75 5.207-13.656 11.934h-0.12891c-8.168 0-14.816-6.6445-14.816-14.816 0-8.168 6.6445-14.816 14.816-14.816 1.8906 0 2.957 0.32422 5.4961 0.71484l-0.96094-2.9141c-3.5508-10.766 4.5273-21.871 15.836-21.871 6.8398 0 13.094 4.2891 15.555 10.672l0.62109 1.6133 1.6523-0.51172c8.3125-2.5781 17 2.6211 18.852 10.914l0.29688 1.3242 1.3516 0.11719c7.582 0.65625 13.523 7.1367 13.523 14.758 0 8.1719-6.6484 14.816-14.816 14.816z"/>
 </g>
</svg>